<?xml version="1.0" encoding="UTF-8"?>
<svg version="1.1" xmlns="http://www.w3.org/2000/svg" width="441" height="411">
<path d="M0 0 C145.53 0 291.06 0 441 0 C441 135.63 441 271.26 441 411 C295.47 411 149.94 411 0 411 C0 275.37 0 139.74 0 0 Z " fill="#FEFEFE" transform="translate(0,0)"/>
<path d="M0 0 C0.66 0 1.32 0 2 0 C7.42868478 20.81803672 8.9578207 44.11364757 3 65 C2.81195801 65.66290039 2.62391602 66.32580078 2.43017578 67.00878906 C-3.79564411 88.23700232 -16.12074335 107.14081318 -31.26171875 123.0859375 C-46.83680197 139.66084775 -58.52412656 158.12710228 -65.3125 179.875 C-65.54316162 180.60388428 -65.77382324 181.33276855 -66.01147461 182.08374023 C-70.2625261 196.69604623 -71.50401818 211.65956072 -71.39111328 226.80908203 C-71.37487201 229.39538186 -71.39116472 231.98014984 -71.41015625 234.56640625 C-71.4231204 244.14891193 -70.60346682 252.72249442 -68 262 C-67.50278148 264.09164562 -67.01453189 266.18544308 -66.53515625 268.28125 C-64.23956486 278.0115756 -61.95657566 287.68291041 -58.87890625 297.19921875 C-55 309.56 -55 309.56 -55 315 C-59.10284014 313.62267001 -61.66842384 311.76356341 -64.8125 308.8125 C-67.84736116 305.99313194 -70.89088321 303.2266581 -74.0625 300.5625 C-79.57617354 295.76459747 -84.51048809 290.26748438 -88.9375 284.45703125 C-91.85686719 280.9792245 -95.34591395 278.49579047 -98.953125 275.76953125 C-99.62859375 275.18558594 -100.3040625 274.60164063 -101 274 C-101 273.34 -101 272.68 -101 272 C-104.11785113 272.64644661 -104.11785113 272.64644661 -105 275 C-105.04602641 277.69542183 -105.04680816 280.36869049 -105 283.0625 C-104.95415574 285.71459031 -104.9529836 288.34651194 -105 291 C-105.33 291.33 -105.66 291.66 -106 292 C-113.97855941 291.44674223 -118.70669753 287.58664417 -125 283 C-126.02351563 282.26523437 -127.04703125 281.53046875 -128.1015625 280.7734375 C-145.0710118 268.18320092 -159.86412466 253.22683417 -171.77685547 235.78369141 C-172.94029088 234.08707282 -174.12714963 232.40903112 -175.31640625 230.73046875 C-180.00509033 223.85645018 -183.63345884 216.82822067 -186.9375 209.1875 C-187.31527588 208.31601318 -187.69305176 207.44452637 -188.08227539 206.54663086 C-190.35987673 201.08464873 -191.87774316 195.81105769 -193 190 C-193.66 190 -194.32 190 -195 190 C-199.91440426 171.9157693 -203.85508806 153.84360722 -203 135 C-199.84624809 135.03391131 -197.68378155 135.42039201 -195.24365234 137.48876953 C-192.69823985 140.16993736 -190.24409777 142.91694023 -187.83007812 145.71679688 C-184.32420205 149.58662817 -184.32420205 149.58662817 -179.61962891 151.54345703 C-175.30588454 151.65433449 -173.54791232 151.41093424 -170 148.75 C-167.0370482 144.67594127 -166.87938647 141.42976168 -166.7890625 136.46484375 C-166.76070312 135.40845703 -166.73234375 134.35207031 -166.703125 133.26367188 C-166.65095395 131.04248921 -166.60670918 128.82110651 -166.5703125 126.59960938 C-166.539375 125.54451172 -166.5084375 124.48941406 -166.4765625 123.40234375 C-166.45674316 122.43804443 -166.43692383 121.47374512 -166.41650391 120.48022461 C-165.93691398 117.62433128 -165.30991372 116.69600661 -163 115 C-157.35031655 114.50498012 -152.9485393 116.52573035 -148 119 C-145.31860784 119.49709519 -145.31860784 119.49709519 -143 118 C-139.71485429 113.17532106 -138.56165575 107.39646342 -137.1875 101.8125 C-135.18973697 93.88563303 -131.92736074 87.15971102 -128 80 C-127.34 80 -126.68 80 -126 80 C-115.73451946 114.83425499 -115.73451946 114.83425499 -114 124 C-113.34 124 -112.68 124 -112 124 C-111.35611328 124.70576172 -111.35611328 124.70576172 -110.69921875 125.42578125 C-108.48937088 127.47306559 -106.75807434 127.69019524 -103.8125 128.1875 C-102.91144531 128.34605469 -102.01039063 128.50460938 -101.08203125 128.66796875 C-100.39496094 128.77753906 -99.70789063 128.88710937 -99 129 C-98.69320312 128.38640625 -98.38640625 127.7728125 -98.0703125 127.140625 C-97.046875 125.09375 -96.0234375 123.046875 -95 121 C-94.34 121 -93.68 121 -93 121 C-92.74089844 119.73414063 -92.48179687 118.46828125 -92.21484375 117.1640625 C-91.23352361 112.7399226 -89.90792877 108.49867636 -88.48657227 104.19921875 C-80.58983311 80.06461412 -78.1926042 54.71436839 -84.53662109 29.90112305 C-85.10619042 27.56432835 -85.16918034 25.40353936 -85.1875 23 C-85.20167969 22.154375 -85.21585937 21.30875 -85.23046875 20.4375 C-84.98543096 17.84591384 -84.30584901 16.22975008 -83 14 C-69.81753991 19.88861161 -61.10342841 26.65467985 -55 40 C-52.60123419 46.67112385 -50.7306332 52.86716714 -51 60 C-34.19260053 53.13286839 -21.46934797 38.95849563 -12.62890625 23.4921875 C-11.82259766 22.25855469 -11.82259766 22.25855469 -11 21 C-10.34 21 -9.68 21 -9 21 C-8.74476563 20.17242187 -8.48953125 19.34484375 -8.2265625 18.4921875 C-6.84742497 14.56559849 -5.16394698 10.87742537 -3.375 7.125 C-3.05015625 6.43664062 -2.7253125 5.74828125 -2.390625 5.0390625 C-1.59676528 3.35794781 -0.79880442 1.67877079 0 0 Z " fill="#3C7892" transform="translate(250,25)"/>
<path d="M0 0 C3 1 3 1 5.0078125 4.421875 C5.72393833 5.85945101 6.42925803 7.30244893 7.125 8.75 C7.66447266 9.82507813 7.66447266 9.82507813 8.21484375 10.921875 C12.75186084 20.16583491 13.22338152 28.72229225 9.9765625 38.5234375 C7.37396717 45.12361926 3.644811 50.7490254 -0.765625 56.2734375 C-2.19466115 58.09315878 -2.19466115 58.09315878 -3 61 C-3.66 61 -4.32 61 -5 61 C-4.64306552 65.01551294 -4.18087586 68.64093572 -1.47265625 71.7578125 C3.78497077 75.86499761 9.87297371 78.45458099 16 81 C16 81.66 16 82.32 16 83 C16.73476563 83.26296875 17.46953125 83.5259375 18.2265625 83.796875 C22.73425237 85.75232356 26.2131149 88.91704535 30 92 C30.63550781 92.47566406 31.27101563 92.95132813 31.92578125 93.44140625 C42.32476963 101.53463224 48.03067329 116.26076128 50 129 C50.26247298 132.67224178 50.28049951 136.31972535 50.25 140 C50.25773438 140.93328125 50.26546875 141.8665625 50.2734375 142.828125 C50.25662802 148.84591908 49.50468022 154.17234964 48 160 C44.33859819 156.39185494 40.83692997 152.67374476 37.375 148.875 C28.79755794 139.54666628 20.11697258 130.68706527 10 123 C9.06414062 122.25878906 8.12828125 121.51757812 7.1640625 120.75390625 C0.11889718 115.27125135 -7.04473928 110.99046142 -15 107 C-15 106.34 -15 105.68 -15 105 C-20.8643729 103.17859477 -26.76125824 101.48326678 -32.6875 99.875 C-34.51861328 99.37613281 -34.51861328 99.37613281 -36.38671875 98.8671875 C-52.44924893 95.01218026 -67.51999756 97.86428154 -83 103 C-83 103.66 -83 104.32 -83 105 C-86.48928518 106.74464259 -90.20256091 106.70148076 -94 106 C-97.11084524 102.88915476 -97.88117034 100.83180765 -98.5 96.5 C-97.52069955 89.64489683 -92.78525737 85.63496254 -87.8125 81.3125 C-82.70998719 76.75179011 -78.35688557 71.97000539 -74.09765625 66.59765625 C-64.40184802 54.5907429 -53.09469078 47.49675571 -38 44 C-37.01 44 -36.02 44 -35 44 C-35 43.34 -35 42.68 -35 42 C-33.9378125 41.5153125 -32.875625 41.030625 -31.78125 40.53125 C-21.55348252 35.73105325 -13.70532027 31.1427916 -8 21 C-7.34 21 -6.68 21 -6 21 C-3.57919742 14.0834212 -1.70022388 7.12647031 0 0 Z " fill="#3A7496" transform="translate(325,71)"/>
<path d="M0 0 C0.99064453 -0.01224609 1.98128906 -0.02449219 3.00195312 -0.03710938 C13.74845654 -0.05825004 22.87021298 2.25682839 32.8125 6.1875 C33.80636719 6.57035156 34.80023438 6.95320312 35.82421875 7.34765625 C47.24747111 11.89648017 55.94420667 17.69600821 64.8125 26.1875 C65.73417969 27.01121094 66.65585937 27.83492187 67.60546875 28.68359375 C82.37144545 42.3904935 88.05290087 60.01279625 88.83203125 79.86328125 C88.8125 83.1875 88.8125 83.1875 87.8125 84.1875 C84.10022274 84.53282812 82.10684614 84.3376766 78.75 82.625 C75.37250366 80.97218264 74.33011945 81.2917824 70.8125 82.1875 C70.8031543 82.89656494 70.79380859 83.60562988 70.78417969 84.33618164 C70.41673173 106.55417474 68.5575816 129.48660068 51.8125 146.1875 C51.1525 146.1875 50.4925 146.1875 49.8125 146.1875 C49.77809814 145.49116455 49.74369629 144.7948291 49.70825195 144.07739258 C48.17229399 114.86085271 44.82523808 85.59260217 31.66015625 59.05078125 C30.8125 57.1875 30.8125 57.1875 30.8125 55.1875 C30.1525 55.1875 29.4925 55.1875 28.8125 55.1875 C28.26722656 54.16011719 27.72195313 53.13273437 27.16015625 52.07421875 C22.44551254 43.34652779 17.45652625 35.61123842 10.8125 28.1875 C9.98105469 27.21296875 9.14960938 26.2384375 8.29296875 25.234375 C2.86698507 18.97988187 -2.90277858 13.73283751 -9.5925293 8.83984375 C-12.64226757 6.58007451 -14.89657889 4.83245373 -16.1875 1.1875 C-10.7648564 -0.03178905 -5.53565371 0.00353264 0 0 Z " fill="#3F808D" transform="translate(268.1875,192.8125)"/>
<path d="M0 0 C14.85299251 5.82470295 25.88678231 20.15464478 32.73828125 34.0078125 C35.52586846 40.61862303 36.31746179 46.35963349 36.25 53.4375 C36.26160156 54.64889648 36.26160156 54.64889648 36.2734375 55.88476562 C36.25617063 61.24181217 35.4890205 65.85342519 34 71 C33.34 71 32.68 71 32 71 C31.979375 71.928125 31.95875 72.85625 31.9375 73.8125 C30.0907718 86.09939828 17.11442239 97.56908358 8.9375 106.375 C3.23097107 112.70901033 -2.18283416 120.36566831 -6 128 C-6.66 128 -7.32 128 -8 128 C-8.268125 128.82886719 -8.53625 129.65773438 -8.8125 130.51171875 C-9.87394925 133.62972591 -11.02021132 136.69129324 -12.20849609 139.76171875 C-14.6642495 146.12455917 -16.79664468 152.26121021 -18 159 C-22.03527446 157.4451236 -24.07508555 154.82178919 -26.75 151.5 C-27.54921875 150.5203125 -28.3484375 149.540625 -29.171875 148.53125 C-31 146 -31 146 -31 144 C-31.66 144 -32.32 144 -33 144 C-33.81436868 142.23002526 -34.6264294 140.45898848 -35.4375 138.6875 C-35.88996094 137.70136719 -36.34242188 136.71523438 -36.80859375 135.69921875 C-40.57333436 127.16992118 -40.1722583 117.16081338 -37.125 108.4375 C-33.83492227 100.8656873 -29.02028975 94.49178554 -24 88 C-23.13643076 86.87131403 -22.27314549 85.74241074 -21.41015625 84.61328125 C-19.73860652 82.43421096 -18.06233303 80.25886899 -16.3828125 78.0859375 C-15.59648437 77.06757813 -14.81015625 76.04921875 -14 75 C-13.27554688 74.06414062 -12.55109375 73.12828125 -11.8046875 72.1640625 C2.47976739 53.20864518 3.44391451 35.27133055 0.71191406 12.47070312 C0.21012883 8.28142147 -0.10812768 4.23049564 0 0 Z " fill="#418588" transform="translate(247,225)"/>
<path d="M0 0 C0.66 0.33 1.32 0.66 2 1 C-4.93 7.93 -11.86 14.86 -19 22 C-19 18.43037694 -18.4786708 18.0705928 -16.11328125 15.56640625 C-15.50419922 14.91736328 -14.89511719 14.26832031 -14.26757812 13.59960938 C-13.62240234 12.92736328 -12.97722656 12.25511719 -12.3125 11.5625 C-11.68666016 10.89412109 -11.06082031 10.22574219 -10.41601562 9.53710938 C-7.13072364 6.06605219 -3.83999605 2.87081923 0 0 Z " fill="#4F81A3" transform="translate(265,124)"/>
</svg>
